<?xml version="1.0" encoding="UTF-8" standalone="no"?>
<svg
   id="Layer_1"
   enable-background="new 0 0 480 480"
   height="512"
   viewBox="0 0 480 480"
   width="512"
   version="1.1"
   sodipodi:docname="book.svg"
   inkscape:version="1.1 (c68e22c387, 2021-05-23)"
   xmlns:inkscape="http://www.inkscape.org/namespaces/inkscape"
   xmlns:sodipodi="http://sodipodi.sourceforge.net/DTD/sodipodi-0.dtd"
   xmlns="http://www.w3.org/2000/svg"
   xmlns:svg="http://www.w3.org/2000/svg">
  <defs
     id="defs25" />
  <sodipodi:namedview
     id="namedview23"
     pagecolor="#ffffff"
     bordercolor="#666666"
     borderopacity="1.0"
     inkscape:pageshadow="2"
     inkscape:pageopacity="0.0"
     inkscape:pagecheckerboard="0"
     showgrid="false"
     inkscape:zoom="1.2734375"
     inkscape:cx="255.60736"
     inkscape:cy="256.39264"
     inkscape:window-width="1600"
     inkscape:window-height="837"
     inkscape:window-x="-8"
     inkscape:window-y="166"
     inkscape:window-maximized="1"
     inkscape:current-layer="g20" />
  <g
     id="g20">
    <path
       d="m474.509 74.238c-2.477-3.659-7.453-4.614-11.109-2.137-3.658 2.478-4.615 7.452-2.137 11.11 1.791 2.645 2.737 5.741 2.737 8.955v320c0 8.822-7.178 16-16 16h-416c-8.822 0-16-7.178-16-16v-320c0-8.822 7.178-16 16-16h5v284c0 6.69 7.763 10.432 12.995 6.249 36.105-28.86 145.802-31.198 185.031.014 2.83 2.248 6.958 2.374 9.947 0 32.236-25.648 102.6-26.343 143.968-17.079 4.314.968 8.589-1.747 9.555-6.058s-1.747-8.589-6.059-9.555c-48.561-10.875-116.985-7.357-152.458 16.52-43.837-29.283-139.969-28.825-186.98-4.613v-273.452c38.218-26.238 139.033-27.896 179-.03v239.648c0 4.418 3.582 8 8 8s8-3.582 8-8v-239.637c39.898-27.827 140.711-26.268 179 .019v306.974c0 4.411-3.589 8-8 8h-351.29c-4.418 0-8 3.582-8 8s3.582 8 8 8h351.291c13.233 0 24-10.766 24-24v-311c0-2.432-1.105-4.731-3.005-6.249-40.621-32.469-152.098-35.686-199.995-3.648-47.223-31.579-155.558-28.766-197.687 1.897h-10.313c-17.645 0-32 14.355-32 32v320c0 17.645 14.355 32 32 32h416c17.645 0 32-14.355 32-32v-320c0-6.426-1.898-12.625-5.491-17.928z"
       id="path2"
       style="fill:#11192d;fill-opacity:1" />
    <path
       d="m293.42 111.404c2.933 0 29.015-5.968 67.374-2.403 4.401.407 8.297-2.826 8.706-7.226.408-4.399-2.826-8.297-7.226-8.706-23.588-2.192-48.525-1.321-70.216 2.451-4.353.757-7.268 4.9-6.511 9.253.678 3.89 4.057 6.631 7.873 6.631z"
       id="path4"
       style="fill:#11162d;fill-opacity:1" />
    <path
       d="m285.548 164.774c.758 4.353 4.9 7.27 9.253 6.511 30.681-5.338 66.539-4.412 95.926 2.475 4.32 1.013 8.611-1.682 9.614-5.964 1.008-4.302-1.662-8.606-5.964-9.614-31.375-7.353-69.627-8.346-102.318-2.66-4.353.756-7.268 4.899-6.511 9.252z"
       id="path6"
       style="fill:#11162d;fill-opacity:1" />
    <path
       d="m285.548 224.774c.758 4.353 4.9 7.268 9.253 6.511 30.681-5.338 66.539-4.413 95.926 2.475 4.32 1.013 8.611-1.682 9.614-5.964 1.008-4.302-1.662-8.606-5.964-9.614-31.375-7.353-69.627-8.347-102.318-2.66-4.353.756-7.268 4.899-6.511 9.252z"
       id="path8"
       style="fill:#11162d;fill-opacity:1" />
    <path
       d="m285.548 284.774c.758 4.353 4.9 7.266 9.253 6.511 30.681-5.338 66.539-4.413 95.926 2.475 4.32 1.013 8.611-1.682 9.614-5.964 1.008-4.302-1.662-8.606-5.964-9.614-31.375-7.353-69.627-8.347-102.318-2.66-4.353.756-7.268 4.899-6.511 9.252z"
       id="path10"
       style="fill:#11162d;fill-opacity:1" />
    <path
       d="m187.941 95.521c-32.694-5.687-70.943-4.692-102.319 2.66-4.302 1.008-6.972 5.313-5.964 9.614 1.006 4.291 5.299 6.973 9.614 5.964 29.387-6.886 65.247-7.812 95.926-2.475 4.352.753 8.496-2.158 9.253-6.511.758-4.352-2.157-8.495-6.51-9.252z"
       id="path12"
       style="fill:#11162d;fill-opacity:1" />
    <path
       d="m187.941 155.521c-32.694-5.687-70.943-4.692-102.319 2.66-4.302 1.008-6.972 5.313-5.964 9.614 1.006 4.291 5.299 6.973 9.614 5.964 29.387-6.886 65.247-7.812 95.926-2.475 4.352.753 8.496-2.158 9.253-6.511.758-4.352-2.157-8.495-6.51-9.252z"
       id="path14"
       style="fill:#11162d;fill-opacity:1" />
    <path
       d="m187.941 215.521c-32.694-5.687-70.943-4.692-102.319 2.66-4.302 1.008-6.972 5.313-5.964 9.614 1.006 4.291 5.299 6.973 9.614 5.964 29.387-6.886 65.247-7.812 95.926-2.475 4.352.753 8.496-2.158 9.253-6.511.758-4.352-2.157-8.495-6.51-9.252z"
       id="path16"
       style="fill:#11162d;fill-opacity:1" />
    <path
       d="m187.941 275.521c-21.424-3.727-46.077-4.624-69.418-2.524-4.4.396-7.647 4.284-7.251 8.684.396 4.401 4.279 7.652 8.685 7.251 21.987-1.977 45.158-1.142 65.243 2.352 4.379.76 8.5-2.182 9.253-6.511.756-4.352-2.159-8.495-6.512-9.252z"
       id="path18"
       style="fill:#11162d;fill-opacity:1" />
  </g>
</svg>
