<svg width="100" height="100" viewBox="0 0 100 100" fill="none" xmlns="http://www.w3.org/2000/svg">
<g clip-path="url(#clip0)">
<mask id="mask0" style="mask-type:alpha" maskUnits="userSpaceOnUse" x="0" y="0" width="100" height="100">
<path fill-rule="evenodd" clip-rule="evenodd" d="M70.9119 99.317C72.4869 99.9306 74.2828 99.8913 75.8725 99.1263L96.4608 89.2196C98.6242 88.1786 100 85.9891 100 83.5871V16.4132C100 14.0112 98.6243 11.8217 96.4609 10.7807L75.8725 0.873694C73.7862 -0.130191 71.3446 0.115698 69.5135 1.44689C69.252 1.63705 69.0028 1.84937 68.769 2.08335L29.3551 38.0414L12.1872 25.0095C10.589 23.7964 8.35363 23.8958 6.86933 25.246L1.36303 30.2548C-0.452552 31.9063 -0.454633 34.7626 1.35853 36.4169L16.2471 50L1.35853 63.5831C-0.454633 65.2373 -0.452552 68.0937 1.36303 69.7452L6.86933 74.754C8.35363 76.1042 10.589 76.2036 12.1872 74.9904L29.3551 61.9586L68.769 97.9166C69.3925 98.5405 70.1246 99.0103 70.9119 99.317ZM75.0152 27.2988L45.1091 50L75.0152 72.7011V27.2988Z" fill="white"/>
</mask>
<g mask="url(#mask0)">
<path d="M96.4614 10.7963L75.8569 0.875634C73.4719 -0.272681 70.6217 0.211703 68.75 2.08342L1.29857 63.5833C-0.515703 65.2374 -0.513617 68.0938 1.30307 69.7453L6.81271 74.7541C8.29792 76.1043 10.5347 76.2037 12.1338 74.9906L93.3609 13.37C96.086 11.3027 100 13.2463 100 16.6668V16.4276C100 14.0266 98.6246 11.8379 96.4614 10.7963Z" fill="#FFF563"/>
<g filter="url(#filter0_d)">
<path d="M96.4614 89.204L75.8569 99.1247C73.4719 100.273 70.6217 99.7886 68.75 97.9169L1.29857 36.4171C-0.515703 34.7629 -0.513617 31.9065 1.30307 30.255L6.81271 25.2462C8.29792 23.896 10.5347 23.7966 12.1338 25.0097L93.3609 86.6303C96.086 88.6976 100 86.754 100 83.3336V83.5728C100 85.9737 98.6246 88.1624 96.4614 89.204Z" fill="#F9F28A"/>
</g>
<g filter="url(#filter1_d)">
<path d="M75.8578 99.1264C73.4721 100.274 70.6219 99.7886 68.75 97.9167C71.0564 100.223 75 98.5896 75 95.3279V4.67219C75 1.41045 71.0564 -0.223045 68.75 2.08335C70.6219 0.211463 73.4721 -0.273605 75.8578 0.873694L96.4587 10.7808C98.6234 11.8218 100 14.0113 100 16.4133V83.5872C100 85.9892 98.6234 88.1787 96.4586 89.2197L75.8578 99.1264Z" fill="#F9F28A"/>
</g>
<g style="mix-blend-mode:overlay" opacity="0.25">
<path style="mix-blend-mode:overlay" opacity="0.25" fill-rule="evenodd" clip-rule="evenodd" d="M70.8511 99.3171C72.4261 99.9306 74.2221 99.8913 75.8117 99.1264L96.4 89.2197C98.5634 88.1787 99.9392 85.9892 99.9392 83.5871V16.4133C99.9392 14.0112 98.5635 11.8217 96.4001 10.7807L75.8117 0.873695C73.7255 -0.13019 71.2838 0.115699 69.4527 1.44688C69.1912 1.63705 68.942 1.84937 68.7082 2.08335L29.2943 38.0414L12.1264 25.0096C10.5283 23.7964 8.29284 23.8959 6.80854 25.246L1.30224 30.2548C-0.513343 31.9064 -0.515424 34.7627 1.29774 36.4169L16.1863 50L1.29774 63.5832C-0.515424 65.2374 -0.513343 68.0937 1.30224 69.7452L6.80854 74.754C8.29284 76.1042 10.5283 76.2036 12.1264 74.9905L29.2943 61.9586L68.7082 97.9167C69.3317 98.5405 70.0638 99.0104 70.8511 99.3171ZM74.9544 27.2989L45.0483 50L74.9544 72.7012V27.2989Z" fill="url(#paint0_linear)"/>
</g>
</g>
</g>
<defs>
<filter id="filter0_d" x="-8.39413" y="15.8293" width="116.727" height="92.2457" filterUnits="userSpaceOnUse" color-interpolation-filters="sRGB">
<feFlood flood-opacity="0" result="BackgroundImageFix"/>
<feColorMatrix in="SourceAlpha" type="matrix" values="0 0 0 0 0 0 0 0 0 0 0 0 0 0 0 0 0 0 127 0" result="hardAlpha"/>
<feOffset/>
<feGaussianBlur stdDeviation="4.16667"/>
<feColorMatrix type="matrix" values="0 0 0 0 0 0 0 0 0 0 0 0 0 0 0 0 0 0 0.25 0"/>
<feBlend mode="overlay" in2="BackgroundImageFix" result="effect1_dropShadow"/>
<feBlend mode="normal" in="SourceGraphic" in2="effect1_dropShadow" result="shape"/>
</filter>
<filter id="filter1_d" x="60.4167" y="-8.07553" width="47.9167" height="116.151" filterUnits="userSpaceOnUse" color-interpolation-filters="sRGB">
<feFlood flood-opacity="0" result="BackgroundImageFix"/>
<feColorMatrix in="SourceAlpha" type="matrix" values="0 0 0 0 0 0 0 0 0 0 0 0 0 0 0 0 0 0 127 0" result="hardAlpha"/>
<feOffset/>
<feGaussianBlur stdDeviation="4.16667"/>
<feColorMatrix type="matrix" values="0 0 0 0 0 0 0 0 0 0 0 0 0 0 0 0 0 0 0.25 0"/>
<feBlend mode="overlay" in2="BackgroundImageFix" result="effect1_dropShadow"/>
<feBlend mode="normal" in="SourceGraphic" in2="effect1_dropShadow" result="shape"/>
</filter>
<linearGradient id="paint0_linear" x1="49.9392" y1="0.257812" x2="49.9392" y2="99.7423" gradientUnits="userSpaceOnUse">
<stop stop-color="white"/>
<stop offset="1" stop-color="white" stop-opacity="0"/>
</linearGradient>
<clipPath id="clip0">
<rect width="100" height="100" fill="white"/>
</clipPath>
</defs>
</svg>
