<svg width="70" height="70" viewBox="0 0 70 70" fill="none" xmlns="http://www.w3.org/2000/svg">
<path d="M5.2599 34.9991C5.2599 46.7706 12.1008 56.9434 22.0207 61.7641L7.83465 22.8961C6.13406 26.7042 5.25668 30.8285 5.2599 34.9991ZM55.0754 33.4984C55.0754 29.823 53.7552 27.2777 52.6229 25.2965C51.1154 22.8468 49.7024 20.7723 49.7024 18.3226C49.7024 15.5889 51.7758 13.0441 54.6963 13.0441C54.8281 13.0441 54.9532 13.0605 55.0817 13.0679C49.7907 8.22054 42.7415 5.26099 34.9992 5.26099C24.6096 5.26099 15.4689 10.5916 10.1514 18.6656C10.8491 18.6865 11.5066 18.7012 12.0652 18.7012C15.1758 18.7012 19.9909 18.3238 19.9909 18.3238C21.594 18.2293 21.783 20.5839 20.1816 20.7735C20.1816 20.7735 18.5705 20.963 16.7778 21.057L27.6076 53.2697L34.1158 33.7508L29.4824 21.0558C27.8809 20.9619 26.3638 20.7723 26.3638 20.7723C24.7612 20.6784 24.9491 18.2281 26.5517 18.3226C26.5517 18.3226 31.463 18.7001 34.3852 18.7001C37.4952 18.7001 42.3109 18.3226 42.3109 18.3226C43.9152 18.2281 44.1036 20.5828 42.5016 20.7723C42.5016 20.7723 40.8871 20.9619 39.0978 21.0558L49.845 53.0247L52.8114 43.1121C54.097 38.9988 55.0754 36.0443 55.0754 33.4984Z" fill="#F9F28A"/>
<path d="M35.5208 37.6004L26.598 63.5285C29.326 64.3319 32.1552 64.7399 34.9991 64.74C38.4623 64.74 41.7834 64.1413 44.8748 63.0543C44.7923 62.9242 44.7215 62.7871 44.6632 62.6446L35.5208 37.6004ZM61.0941 20.731C61.222 21.6782 61.2944 22.6951 61.2944 23.789C61.2944 26.8068 60.7308 30.1993 59.0331 34.4411L49.9491 60.7053C58.7904 55.5496 64.7372 45.9709 64.7372 34.9996C64.7378 29.8292 63.417 24.9671 61.0941 20.731Z" fill="#F9F28A"/>
<path d="M34.9991 0.333252C15.8842 0.333252 0.332153 15.8842 0.332153 34.9991C0.332153 54.1162 15.8842 69.6666 34.9991 69.6666C54.1134 69.6666 69.6678 54.1162 69.6678 34.9991C69.6672 15.8842 54.1134 0.333252 34.9991 0.333252ZM34.9991 68.0776C16.7608 68.0776 1.92171 53.2385 1.92171 34.9991C1.92171 16.7608 16.7602 1.92281 34.9991 1.92281C53.2369 1.92281 68.0748 16.7608 68.0748 34.9991C68.0748 53.2385 53.2369 68.0776 34.9991 68.0776Z" fill="#F9F28A"/>
</svg>
