<svg xmlns="http://www.w3.org/2000/svg" version="1.1" xmlns:xlink="http://www.w3.org/1999/xlink" xmlns:svgjs="http://svgjs.com/svgjs" width="75" height="75"><svg width="75" height="75" viewBox="0 0 75 75" fill="none" xmlns="http://www.w3.org/2000/svg">
<circle cx="37.5" cy="37.5" r="37.5" fill="#F9F28A"></circle>
<path d="M56.981 15.1583H32.8739V33.2386H39.2578C36.2715 30.8341 35.1268 26.8074 36.4016 23.1915C37.6764 19.5756 41.0934 17.1572 44.9274 17.1572C48.7614 17.1572 52.1785 19.5756 53.4533 23.1915C54.7281 26.8075 53.5834 30.8342 50.597 33.2386H56.981V15.1583Z" fill="#11192D"></path>
<path d="M25.8427 10.1359C25.844 9.02698 26.7427 8.1283 27.8516 8.12698H46.9364V5.11365H22.8292V33.2386H25.8427V10.1359V10.1359Z" fill="#11192D"></path>
<path d="M27.8514 33.2386H30.8649V15.1583C30.8662 14.0494 31.7649 13.1507 32.8738 13.1494H51.9586V10.1359H27.8514V33.2386Z" fill="#11192D"></path>
<path d="M49.8951 31.1785C51.9085 29.1686 52.5122 26.1435 51.4247 23.5147C50.3371 20.8859 47.7727 19.1714 44.9278 19.1713C42.0829 19.1712 39.5182 20.8854 38.4305 23.5141C37.3427 26.1428 37.9462 29.168 39.9593 31.1782C40.1405 29.8573 40.9155 28.6916 42.0634 28.0136C40.5131 26.4371 40.528 23.9043 42.0966 22.3463C43.6652 20.7882 46.1981 20.7904 47.764 22.3512C49.3299 23.9121 49.3403 26.4449 47.7873 28.0186C48.0107 28.1533 48.2227 28.3058 48.4215 28.4745C49.2382 29.1559 49.7651 30.1227 49.8951 31.1785Z" fill="#11192D"></path>
<path d="M60.9988 25.2029H58.9899V33.2386H60.9988V25.2029Z" fill="#11192D"></path>
<path d="M44.9274 27.2119C46.0369 27.2119 46.9364 26.3124 46.9364 25.2029C46.9364 24.0934 46.0369 23.194 44.9274 23.194C43.8179 23.194 42.9185 24.0934 42.9185 25.2029C42.9185 26.3124 43.8179 27.2119 44.9274 27.2119Z" fill="#11192D"></path>
<path d="M41.9139 31.6516V32.5506C43.8181 33.4681 46.0366 33.4681 47.9407 32.5506V31.6516C47.9275 31.0055 47.6244 30.3996 47.1153 30.0017C46.5052 29.4839 45.7274 29.2062 44.9274 29.2209C43.4299 29.0797 42.093 30.1581 41.9139 31.6516Z" fill="#11192D"></path>
<path d="M20.8202 33.3923V25.2029H13.2145L16.4569 34.1195L20.8202 33.3923Z" fill="#11192D"></path>
<path d="M31.8695 35.2476H22.5325L13.2054 61.3637H59.7065L69.0336 35.2476H31.8695ZM52.9632 45.1495V47.3012C52.9614 48.9647 51.6133 50.3127 49.9498 50.3146H35.8873C34.2237 50.3127 32.8757 48.9647 32.8738 47.3012V45.1495C30.9149 44.6437 29.6375 42.7601 29.8925 40.753C30.1474 38.7459 31.8551 37.2414 33.8783 37.2414C35.9016 37.2414 37.6092 38.7459 37.8642 40.753C38.119 42.7601 36.8418 44.6437 34.8828 45.1495V47.3012C34.8833 47.8556 35.3327 48.3051 35.8873 48.3056H49.9498C50.5043 48.3051 50.9537 47.8556 50.9543 47.3012V45.1495C48.9953 44.6437 47.7179 42.7601 47.9729 40.753C48.2278 38.7459 49.9355 37.2414 51.9587 37.2414C53.982 37.2414 55.6896 38.7459 55.9446 40.753C56.1995 42.7601 54.9222 44.6437 52.9632 45.1495Z" fill="#11192D"></path>
<path d="M51.9586 39.2654C51.0504 39.2624 50.254 39.8711 50.0183 40.7482C49.7827 41.6254 50.1669 42.5512 50.9543 43.0038V42.2788C50.9543 41.7241 51.4039 41.2744 51.9588 41.2744C52.5135 41.2744 52.9632 41.724 52.9632 42.2788V43.0038C53.7506 42.5512 54.1348 41.6254 53.8992 40.7482C53.6633 39.8711 52.8669 39.2624 51.9586 39.2654Z" fill="#11192D"></path>
<path d="M34.8828 43.0039C35.6702 42.5493 36.0541 41.6225 35.8188 40.7441C35.5835 39.8657 34.7876 39.2551 33.8783 39.2551C32.9691 39.2551 32.1731 39.8659 31.9378 40.7441C31.7024 41.6224 32.0863 42.5492 32.8738 43.0039V42.2789C32.8738 41.7242 33.3235 41.2744 33.8783 41.2744C34.4331 41.2744 34.8828 41.7241 34.8828 42.2789V43.0039Z" fill="#11192D"></path>
<path d="M16.7873 36.101C15.8323 36.2606 14.8993 35.7162 14.5684 34.8062L12.7847 29.9006V56.5691L20.304 35.5148L16.7873 36.101Z" fill="#11192D"></path>
</svg><style>@media (prefers-color-scheme: light) { :root { filter: none; } }
@media (prefers-color-scheme: dark) { :root { filter: none; } }
</style></svg>